<?xml version="1.0" standalone="no"?><!DOCTYPE svg PUBLIC "-//W3C//DTD SVG 1.1//EN" "http://www.w3.org/Graphics/SVG/1.1/DTD/svg11.dtd"><svg t="1503389675018" class="icon" style="" viewBox="0 0 1024 1024" version="1.1" xmlns="http://www.w3.org/2000/svg" p-id="3727" xmlns:xlink="http://www.w3.org/1999/xlink" width="16" height="16"><defs><style type="text/css"></style></defs><path d="M736.064 434.581L490.816 672.79c0 0.022-0.021 0.022-0.043 0.022l-2.453 2.389-0.277-0.235c-10.027 8.512-22.443 12.928-34.966 12.886-13.674 0.042-27.349-4.971-37.738-15.083L283.328 544.533c-20.757-20.117-20.757-52.778 0-72.917 20.715-20.117 54.336-20.117 75.072 0l94.677 91.968L660.992 361.6c20.736-20.117 54.379-20.075 75.072 0 20.757 20.181 20.757 52.843 0 72.981zM506.667 917.355c235.648 0 426.666-191.019 426.666-426.667S742.315 64.021 506.667 64.021 80 255.04 80 490.688s191.019 426.667 426.667 426.667z" p-id="3728" fill="#7a94ad"></path></svg>