<?xml version="1.0" standalone="no"?><!DOCTYPE svg PUBLIC "-//W3C//DTD SVG 1.1//EN" "http://www.w3.org/Graphics/SVG/1.1/DTD/svg11.dtd"><svg t="1503388620172" class="icon" style="" viewBox="0 0 1024 1024" version="1.1" xmlns="http://www.w3.org/2000/svg" p-id="3038" xmlns:xlink="http://www.w3.org/1999/xlink" width="16" height="16"><defs><style type="text/css"></style></defs><path d="M992 940.8l-217.6-192c25.6-32 51.2-70.4 64-108.8 19.2-57.6 32-115.2 32-172.8 0-57.6-12.8-115.2-32-172.8-19.2-51.2-51.2-102.4-89.6-140.8-38.4-38.4-83.2-70.4-134.4-96C563.2 32 505.6 19.2 448 19.2c-57.6 0-115.2 12.8-166.4 32C230.4 76.8 185.6 108.8 147.2 153.6 108.8 192 76.8 243.2 51.2 294.4 32 345.6 19.2 403.2 19.2 467.2c0 57.6 12.8 115.2 32 172.8 19.2 51.2 51.2 102.4 89.6 140.8 38.4 38.4 83.2 70.4 134.4 96C332.8 896 390.4 908.8 448 908.8c57.6 0 115.2-12.8 166.4-32 44.8-19.2 83.2-44.8 115.2-76.8l217.6 192c6.4 6.4 12.8 6.4 19.2 6.4 6.4 0 19.2-6.4 25.6-12.8C1004.8 979.2 1004.8 953.6 992 940.8L992 940.8zM448 844.8c-198.4 0-358.4-166.4-358.4-377.6C89.6 256 249.6 89.6 448 89.6c198.4 0 358.4 166.4 358.4 377.6C806.4 672 646.4 844.8 448 844.8L448 844.8z" p-id="3039" fill="#7a94ad"></path></svg>