<?xml version="1.0" standalone="no"?><!DOCTYPE svg PUBLIC "-//W3C//DTD SVG 1.1//EN" "http://www.w3.org/Graphics/SVG/1.1/DTD/svg11.dtd"><svg t="1502194145904" class="icon" style="" viewBox="0 0 1024 1024" version="1.1" xmlns="http://www.w3.org/2000/svg" p-id="1320" xmlns:xlink="http://www.w3.org/1999/xlink" width="12" height="12"><defs><style type="text/css"></style></defs><path d="M741.376 992c-17.728 0-35.648-4.608-51.52-13.376L512 880.896 334.208 978.56c-44.16 24.448-101.376 13.184-133.952-25.152a112.256 112.256 0 0 1-24.96-90.816l34.56-210.56L64 503.36a111.936 111.936 0 0 1-26.112-114.304 108.928 108.928 0 0 1 86.976-73.984l199.424-30.272 89.728-189.952a107.776 107.776 0 0 1 195.968-0.064l89.728 189.952 199.488 30.272a108.992 108.992 0 0 1 86.976 73.984A112.128 112.128 0 0 1 960 503.36l-145.92 148.672 34.496 210.496a111.872 111.872 0 0 1-24.832 90.752 107.904 107.904 0 0 1-82.368 38.72zM512 759.04c17.856 0 35.712 4.544 51.52 13.248l163.456 89.792-31.872-194.24a112.256 112.256 0 0 1 30.592-97.024l137.216-139.904-187.52-28.416a108.672 108.672 0 0 1-81.92-61.696L512 168.32 430.528 340.864a108.608 108.608 0 0 1-82.048 61.632l-187.392 28.416 137.472 140.096c24.768 25.152 36.16 61.376 30.4 96.704l-31.936 194.368 163.392-89.792c15.872-8.704 33.664-13.248 51.584-13.248z" p-id="1321" fill="#797979"></path></svg>