<?xml version="1.0" standalone="no"?><!DOCTYPE svg PUBLIC "-//W3C//DTD SVG 1.1//EN" "http://www.w3.org/Graphics/SVG/1.1/DTD/svg11.dtd"><svg t="1502194258165" class="icon" style="" viewBox="0 0 1024 1024" version="1.1" xmlns="http://www.w3.org/2000/svg" p-id="1558" xmlns:xlink="http://www.w3.org/1999/xlink" width="16" height="16"><defs><style type="text/css"></style></defs><path d="M845.824 483.84l-118.272 122.368 22.528 179.2c-0.512 24.576-20.48 44.544-45.056 44.544-8.192 0-15.872-2.048-23.04-6.144L522.24 750.592l-161.792 73.216-6.144 3.072-1.024 0.512c-4.608 1.536-9.216 2.56-14.336 2.56-24.576 0-45.056-19.968-45.056-45.056 0-2.56 0.512-5.632 1.024-8.192v-2.048l21.504-168.448-118.272-122.368c-10.752-8.704-16.896-21.504-16.896-34.816 0-22.016 15.872-40.96 37.888-44.544l176.128-32.768 86.528-152.064c7.68-15.36 23.04-25.088 39.936-25.088 15.36 0 29.184 7.68 37.376 19.968 1.024 1.536 2.048 3.072 3.072 5.12l86.528 152.064 176.128 32.768c21.504 3.584 37.376 22.016 37.376 44.032 0.512 13.824-5.632 26.624-16.384 35.328z" p-id="1559" fill="#797979"></path></svg>